<?xml version="1.0" standalone="no"?>
<!DOCTYPE svg PUBLIC "-//W3C//DTD SVG 20010904//EN"
 "http://www.w3.org/TR/2001/REC-SVG-20010904/DTD/svg10.dtd">
<svg version="1.0" xmlns="http://www.w3.org/2000/svg"
 width="512.000000pt" height="512.000000pt" viewBox="0 0 512.000000 512.000000"
 preserveAspectRatio="xMidYMid meet">

<g transform="translate(0.000000,512.000000) scale(0.100000,-0.100000)"
fill="#000000" stroke="none">
<path d="M3717 5094 c-373 -67 -713 -333 -867 -677 l-35 -77 -1027 0 -1028 0
-32 -29 -33 -29 -6 -619 c-4 -340 -7 -924 -8 -1299 0 -374 -4 -749 -8 -832
l-6 -152 -289 0 c-311 0 -330 -3 -357 -52 -10 -19 -12 -84 -9 -279 4 -244 5
-257 31 -334 65 -196 217 -350 419 -423 l73 -27 1389 -3 c1378 -2 1390 -2
1465 18 215 60 386 221 458 434 l28 81 3 971 3 971 94 7 c127 9 238 31 343 68
111 39 158 63 268 137 541 363 683 1100 316 1643 -178 264 -463 448 -776 503
-109 18 -303 18 -409 -1z m339 -195 c368 -51 677 -310 799 -670 55 -162 60
-406 10 -574 -105 -357 -403 -628 -768 -696 -90 -17 -278 -14 -371 6 -378 80
-679 380 -762 761 -26 122 -23 313 9 434 128 490 592 807 1083 739z m-1303
-811 c-26 -171 6 -434 72 -590 7 -17 -15 -18 -385 -18 l-392 0 -29 -29 c-41
-41 -41 -101 0 -142 l29 -29 444 0 443 0 53 -69 c153 -201 372 -351 615 -422
l77 -23 0 -943 c0 -654 -3 -958 -11 -995 -17 -79 -54 -151 -110 -212 -104
-114 -218 -161 -368 -154 -75 3 -98 9 -165 41 -138 66 -239 192 -266 336 -5
30 -10 150 -10 268 l0 215 -29 29 -29 29 -907 0 -907 0 6 1198 c4 658 9 1279
12 1380 l6 182 929 0 930 0 -8 -52z m-203 -3070 c0 -190 14 -269 65 -376 32
-68 89 -152 107 -160 43 -19 -107 -22 -1056 -22 -1016 0 -1067 1 -1125 19
-156 48 -286 191 -320 349 -6 29 -11 120 -11 202 l0 150 1170 0 1170 0 0 -162z"/>
<path d="M3849 4682 c-27 -24 -33 -37 -37 -85 l-4 -56 -54 -26 c-69 -34 -146
-119 -175 -193 -29 -77 -29 -185 0 -264 47 -124 169 -212 315 -228 127 -15
177 -58 184 -159 3 -46 0 -62 -20 -90 -33 -49 -69 -72 -121 -78 -94 -11 -166
52 -181 159 -13 88 -100 127 -164 73 -16 -13 -32 -38 -35 -55 -8 -40 8 -124
35 -180 29 -59 111 -140 171 -168 45 -21 47 -24 47 -62 0 -51 22 -105 48 -119
36 -19 88 -13 121 15 28 23 31 31 31 83 l0 56 52 19 c74 26 167 121 197 200
49 131 22 280 -69 379 -63 69 -128 104 -221 118 -41 6 -84 13 -97 15 -13 3
-42 22 -65 43 -37 35 -41 43 -45 100 -4 53 -1 66 21 100 30 45 80 71 137 71
88 0 146 -55 161 -154 13 -79 75 -122 140 -96 45 19 62 51 60 115 -3 124 -86
248 -207 305 l-64 31 0 45 c0 56 -12 79 -50 99 -43 22 -76 18 -111 -13z"/>
<path d="M1497 3640 c-61 -16 -113 -47 -150 -91 -153 -178 -25 -442 214 -443
151 0 279 123 279 269 0 54 -28 129 -65 172 -63 74 -187 115 -278 93z m122
-226 c12 -15 21 -32 21 -39 0 -7 -9 -24 -21 -39 -40 -50 -139 -24 -139 38 0
62 99 90 139 40z"/>
<path d="M1451 2913 c-68 -24 -136 -98 -157 -169 -32 -110 -4 -207 82 -283
108 -95 263 -93 372 5 143 128 110 355 -63 439 -54 26 -174 30 -234 8z m149
-193 c79 -42 13 -154 -70 -120 -54 22 -65 66 -25 105 25 26 63 32 95 15z"/>
<path d="M2021 2734 c-26 -22 -31 -33 -31 -69 0 -32 7 -52 24 -72 l24 -28 587
-3 587 -2 34 34 c45 45 47 94 5 137 l-29 29 -585 0 -585 0 -31 -26z"/>
<path d="M1469 2207 c-168 -63 -236 -235 -152 -389 47 -87 132 -136 239 -137
115 -2 196 44 249 140 26 47 30 64 30 129 0 53 -6 85 -19 110 -26 49 -84 108
-131 132 -50 27 -165 34 -216 15z m146 -212 c14 -13 25 -34 25 -45 0 -30 -47
-70 -82 -70 -34 0 -78 39 -78 70 0 32 44 70 80 70 19 0 40 -9 55 -25z"/>
<path d="M2060 2040 c-47 -11 -70 -43 -70 -95 0 -51 32 -91 81 -100 19 -3 285
-5 592 -3 l559 3 29 33 c53 59 29 140 -49 162 -44 12 -1089 12 -1142 0z"/>
</g>
</svg>
