<?xml version="1.0" standalone="no"?>
<!DOCTYPE svg PUBLIC "-//W3C//DTD SVG 20010904//EN"
 "http://www.w3.org/TR/2001/REC-SVG-20010904/DTD/svg10.dtd">
<svg version="1.0" xmlns="http://www.w3.org/2000/svg"
 width="512.000000pt" height="512.000000pt" viewBox="0 0 512.000000 512.000000"
 preserveAspectRatio="xMidYMid meet">

<g transform="translate(0.000000,512.000000) scale(0.100000,-0.100000)"
fill="#000000" stroke="none">
<path d="M1855 5106 c-121 -30 -232 -116 -286 -221 l-34 -65 -253 0 c-232 0
-256 -2 -291 -20 -49 -24 -86 -94 -78 -145 3 -19 60 -201 126 -405 67 -203
121 -376 121 -383 0 -8 -22 -28 -50 -46 -205 -133 -259 -414 -118 -625 18 -28
27 -51 21 -54 -5 -4 -27 -18 -49 -31 -140 -87 -361 -287 -481 -435 -344 -425
-519 -969 -474 -1476 28 -317 127 -546 321 -741 248 -252 578 -378 1150 -440
155 -18 785 -18 950 -1 248 25 472 69 624 121 l58 21 48 -43 c56 -50 135 -90
208 -106 70 -15 1306 -15 1383 -1 271 52 434 338 338 595 -11 29 -33 73 -50
99 l-31 46 31 46 c56 84 74 148 74 254 0 106 -18 170 -74 254 l-31 46 31 46
c56 84 74 148 74 254 0 106 -18 170 -74 254 l-31 46 31 46 c179 272 29 634
-288 694 -33 6 -300 10 -694 10 l-640 0 -104 109 c-105 111 -224 212 -343 291
-36 24 -67 44 -69 46 -2 2 11 24 28 50 140 211 86 492 -119 625 -28 18 -50 38
-50 46 0 7 54 180 121 383 66 204 123 386 126 405 8 51 -29 121 -78 145 -35
18 -59 20 -291 20 l-253 0 -34 65 c-89 173 -303 269 -496 221z m175 -306 c70
-36 80 -70 80 -280 0 -161 2 -185 20 -220 23 -45 80 -80 130 -80 50 0 107 35
130 80 16 31 20 59 20 130 l0 90 120 0 c66 0 120 -3 120 -7 0 -5 -45 -143 -99
-308 l-98 -300 -493 0 -493 0 -98 300 c-54 165 -99 303 -99 308 0 4 95 7 210
7 192 0 214 2 250 20 45 23 80 80 80 130 0 48 35 107 78 129 48 26 93 26 142
1z m600 -1220 c45 -23 80 -80 80 -130 0 -50 -35 -107 -80 -130 -38 -19 -58
-20 -670 -20 -612 0 -632 1 -670 20 -45 23 -80 80 -80 130 0 48 35 107 78 129
36 19 60 20 670 21 615 0 634 -1 672 -20z m-46 -604 c83 -37 192 -102 291
-176 94 -70 255 -216 255 -231 0 -5 -15 -32 -34 -59 -59 -86 -79 -152 -79
-260 0 -106 18 -170 74 -254 l31 -46 -31 -46 c-56 -84 -74 -148 -74 -254 0
-106 18 -170 74 -254 l31 -46 -31 -46 c-56 -84 -74 -148 -74 -254 0 -106 18
-170 74 -254 l31 -46 -31 -46 c-40 -61 -67 -135 -76 -207 l-7 -57 -92 -29
c-205 -66 -451 -97 -836 -107 -962 -25 -1507 166 -1695 592 -132 298 -105 769
66 1161 96 220 211 386 394 568 147 148 262 233 427 318 l113 57 572 0 572 0
55 -24z m2156 -596 c45 -23 80 -80 80 -130 0 -50 -35 -107 -80 -130 -38 -19
-58 -20 -675 -20 -617 0 -637 1 -675 20 -45 23 -80 80 -80 130 0 48 35 107 78
129 36 19 60 20 675 21 620 0 639 -1 677 -20z m0 -600 c45 -23 80 -80 80 -130
0 -50 -35 -107 -80 -130 -38 -19 -58 -20 -675 -20 -617 0 -637 1 -675 20 -45
23 -80 80 -80 130 0 48 35 107 78 129 36 19 60 20 675 21 620 0 639 -1 677
-20z m0 -600 c45 -23 80 -80 80 -130 0 -50 -35 -107 -80 -130 -38 -19 -58 -20
-675 -20 -617 0 -637 1 -675 20 -45 23 -80 80 -80 130 0 48 35 107 78 129 36
19 60 20 675 21 620 0 639 -1 677 -20z m0 -600 c45 -23 80 -80 80 -130 0 -50
-35 -107 -80 -130 -38 -19 -58 -20 -675 -20 -617 0 -637 1 -675 20 -45 23 -80
80 -80 130 0 48 35 107 78 129 36 19 60 20 675 21 620 0 639 -1 677 -20z"/>
<path d="M1888 2679 c-63 -33 -78 -76 -78 -222 l0 -125 -56 -27 c-31 -15 -80
-52 -110 -81 -244 -244 -139 -648 195 -750 25 -8 62 -14 81 -14 137 -1 219
-99 174 -208 -25 -60 -71 -92 -133 -92 -86 0 -139 52 -152 148 -13 92 -71 146
-157 144 -81 -1 -142 -69 -142 -157 0 -152 98 -309 241 -385 l59 -31 0 -80 c0
-60 5 -89 20 -119 23 -45 80 -80 130 -80 50 0 107 35 130 80 15 30 20 59 20
119 l0 80 60 32 c33 17 82 55 109 84 260 275 98 712 -280 757 -95 11 -134 29
-166 78 -61 90 9 221 119 222 86 2 144 -52 157 -144 13 -96 66 -148 151 -148
62 0 106 29 132 87 19 43 20 54 9 122 -16 104 -60 188 -136 259 -34 32 -83 68
-108 80 l-47 22 0 125 c0 106 -3 132 -20 165 -37 73 -127 99 -202 59z"/>
</g>
</svg>
